<svg width="32" height="32" viewBox="0 0 32 32" fill="none" xmlns="http://www.w3.org/2000/svg">
<rect width="32" height="32" rx="16" fill="#F7F7F7"/>
<mask id="mask0_696_4664" style="mask-type:alpha" maskUnits="userSpaceOnUse" x="4" y="4" width="24" height="24">
<rect x="4" y="4" width="24" height="24" fill="#D9D9D9"/>
</mask>
<g mask="url(#mask0_696_4664)">
<mask id="path-3-inside-1_696_4664" fill="white">
<path d="M9.70785 23.9C9.26568 23.9 8.88718 23.7426 8.57235 23.4278C8.25751 23.113 8.1001 22.7345 8.1001 22.2923V9.7078C8.1001 9.26563 8.25751 8.88713 8.57235 8.5723C8.88718 8.25747 9.26568 8.10005 9.70785 8.10005H14.2328C14.2123 7.62822 14.3713 7.2103 14.7098 6.8463C15.0482 6.48213 15.4798 6.30005 16.0048 6.30005C16.5298 6.30005 16.9616 6.48213 17.3001 6.8463C17.6386 7.2103 17.7943 7.62822 17.7673 8.10005H22.2923C22.7345 8.10005 23.113 8.25747 23.4278 8.5723C23.7427 8.88713 23.9001 9.26563 23.9001 9.7078V14.8655C23.9001 15.0497 23.8383 15.204 23.7146 15.3285C23.5909 15.4532 23.4378 15.5155 23.2551 15.5155C23.0723 15.5155 22.9174 15.4532 22.7906 15.3285C22.6636 15.204 22.6001 15.0497 22.6001 14.8655V9.7078C22.6001 9.6308 22.568 9.5603 22.5038 9.4963C22.4398 9.43213 22.3693 9.40005 22.2923 9.40005H9.70785C9.63085 9.40005 9.56035 9.43213 9.49635 9.4963C9.43218 9.5603 9.4001 9.6308 9.4001 9.7078V22.2923C9.4001 22.3693 9.43218 22.4398 9.49635 22.5038C9.56035 22.568 9.63085 22.6 9.70785 22.6H14.8656C15.0498 22.6 15.2041 22.6619 15.3286 22.7855C15.4533 22.9092 15.5156 23.0624 15.5156 23.2451C15.5156 23.4279 15.4533 23.5827 15.3286 23.7096C15.2041 23.8365 15.0498 23.9 14.8656 23.9H9.70785ZM9.4001 22.6V9.40005V15.5655V15.5155V22.6ZM12.1001 20.4346H14.9423C15.1265 20.4346 15.2809 20.3728 15.4056 20.2493C15.5301 20.1256 15.5923 19.9724 15.5923 19.7895C15.5923 19.6069 15.5301 19.4521 15.4056 19.325C15.2809 19.1982 15.1265 19.1348 14.9423 19.1348H12.1001C11.9159 19.1348 11.7616 19.1965 11.6371 19.3201C11.5124 19.4437 11.4501 19.597 11.4501 19.7798C11.4501 19.9625 11.5124 20.1173 11.6371 20.2443C11.7616 20.3711 11.9159 20.4346 12.1001 20.4346ZM12.1001 16.65H18.2406C18.4248 16.65 18.5791 16.5882 18.7036 16.4646C18.8283 16.3409 18.8906 16.1877 18.8906 16.005C18.8906 15.8222 18.8283 15.6674 18.7036 15.5405C18.5791 15.4135 18.4248 15.35 18.2406 15.35H12.1001C11.9159 15.35 11.7616 15.4119 11.6371 15.5356C11.5124 15.6592 11.4501 15.8124 11.4501 15.995C11.4501 16.1779 11.5124 16.3327 11.6371 16.4595C11.7616 16.5865 11.9159 16.65 12.1001 16.65ZM12.1001 12.8653H19.9001C20.0843 12.8653 20.2386 12.8035 20.3631 12.68C20.4878 12.5564 20.5501 12.4031 20.5501 12.2203C20.5501 12.0376 20.4878 11.8828 20.3631 11.7558C20.2386 11.629 20.0843 11.5655 19.9001 11.5655H12.1001C11.9159 11.5655 11.7616 11.6273 11.6371 11.7508C11.5124 11.8745 11.4501 12.0277 11.4501 12.2105C11.4501 12.3932 11.5124 12.548 11.6371 12.675C11.7616 12.8019 11.9159 12.8653 12.1001 12.8653ZM16.0001 8.8963C16.1734 8.8963 16.3168 8.83963 16.4301 8.7263C16.5434 8.61297 16.6001 8.46963 16.6001 8.2963C16.6001 8.12296 16.5434 7.97963 16.4301 7.8663C16.3168 7.75297 16.1734 7.6963 16.0001 7.6963C15.8268 7.6963 15.6834 7.75297 15.5701 7.8663C15.4568 7.97963 15.4001 8.12296 15.4001 8.2963C15.4001 8.46963 15.4568 8.61297 15.5701 8.7263C15.6834 8.83963 15.8268 8.8963 16.0001 8.8963ZM21.9943 26.3578C20.7995 26.3578 19.7851 25.9389 18.9511 25.101C18.1171 24.2634 17.7001 23.247 17.7001 22.052C17.7001 20.8572 18.119 19.8428 18.9568 19.0088C19.7945 18.1748 20.8108 17.7578 22.0058 17.7578C23.2007 17.7578 24.2151 18.1766 25.0491 19.0143C25.8831 19.8521 26.3001 20.8685 26.3001 22.0633C26.3001 23.2583 25.8812 24.2728 25.0433 25.1068C24.2057 25.9408 23.1893 26.3578 21.9943 26.3578ZM21.4578 22.6V23.8578C21.4578 24.0023 21.5121 24.1288 21.6206 24.2373C21.7289 24.3458 21.8554 24.4001 22.0001 24.4001C22.1448 24.4001 22.2713 24.3458 22.3796 24.2373C22.4881 24.1288 22.5423 24.0023 22.5423 23.8578V22.6H23.8001C23.9448 22.6 24.0713 22.5458 24.1796 22.4373C24.2881 22.3288 24.3423 22.2023 24.3423 22.0578C24.3423 21.9131 24.2881 21.7866 24.1796 21.6781C24.0713 21.5697 23.9448 21.5155 23.8001 21.5155H22.5423V20.2578C22.5423 20.1131 22.4881 19.9866 22.3796 19.878C22.2713 19.7697 22.1448 19.7155 22.0001 19.7155C21.8554 19.7155 21.7289 19.7697 21.6206 19.878C21.5121 19.9866 21.4578 20.1131 21.4578 20.2578V21.5155H20.2001C20.0554 21.5155 19.9289 21.5697 19.8206 21.6781C19.7121 21.7866 19.6578 21.9131 19.6578 22.0578C19.6578 22.2023 19.7121 22.3288 19.8206 22.4373C19.9289 22.5458 20.0554 22.6 20.2001 22.6H21.4578Z"/>
</mask>
<path d="M9.70785 23.9C9.26568 23.9 8.88718 23.7426 8.57235 23.4278C8.25751 23.113 8.1001 22.7345 8.1001 22.2923V9.7078C8.1001 9.26563 8.25751 8.88713 8.57235 8.5723C8.88718 8.25747 9.26568 8.10005 9.70785 8.10005H14.2328C14.2123 7.62822 14.3713 7.2103 14.7098 6.8463C15.0482 6.48213 15.4798 6.30005 16.0048 6.30005C16.5298 6.30005 16.9616 6.48213 17.3001 6.8463C17.6386 7.2103 17.7943 7.62822 17.7673 8.10005H22.2923C22.7345 8.10005 23.113 8.25747 23.4278 8.5723C23.7427 8.88713 23.9001 9.26563 23.9001 9.7078V14.8655C23.9001 15.0497 23.8383 15.204 23.7146 15.3285C23.5909 15.4532 23.4378 15.5155 23.2551 15.5155C23.0723 15.5155 22.9174 15.4532 22.7906 15.3285C22.6636 15.204 22.6001 15.0497 22.6001 14.8655V9.7078C22.6001 9.6308 22.568 9.5603 22.5038 9.4963C22.4398 9.43213 22.3693 9.40005 22.2923 9.40005H9.70785C9.63085 9.40005 9.56035 9.43213 9.49635 9.4963C9.43218 9.5603 9.4001 9.6308 9.4001 9.7078V22.2923C9.4001 22.3693 9.43218 22.4398 9.49635 22.5038C9.56035 22.568 9.63085 22.6 9.70785 22.6H14.8656C15.0498 22.6 15.2041 22.6619 15.3286 22.7855C15.4533 22.9092 15.5156 23.0624 15.5156 23.2451C15.5156 23.4279 15.4533 23.5827 15.3286 23.7096C15.2041 23.8365 15.0498 23.9 14.8656 23.9H9.70785ZM9.4001 22.6V9.40005V15.5655V15.5155V22.6ZM12.1001 20.4346H14.9423C15.1265 20.4346 15.2809 20.3728 15.4056 20.2493C15.5301 20.1256 15.5923 19.9724 15.5923 19.7895C15.5923 19.6069 15.5301 19.4521 15.4056 19.325C15.2809 19.1982 15.1265 19.1348 14.9423 19.1348H12.1001C11.9159 19.1348 11.7616 19.1965 11.6371 19.3201C11.5124 19.4437 11.4501 19.597 11.4501 19.7798C11.4501 19.9625 11.5124 20.1173 11.6371 20.2443C11.7616 20.3711 11.9159 20.4346 12.1001 20.4346ZM12.1001 16.65H18.2406C18.4248 16.65 18.5791 16.5882 18.7036 16.4646C18.8283 16.3409 18.8906 16.1877 18.8906 16.005C18.8906 15.8222 18.8283 15.6674 18.7036 15.5405C18.5791 15.4135 18.4248 15.35 18.2406 15.35H12.1001C11.9159 15.35 11.7616 15.4119 11.6371 15.5356C11.5124 15.6592 11.4501 15.8124 11.4501 15.995C11.4501 16.1779 11.5124 16.3327 11.6371 16.4595C11.7616 16.5865 11.9159 16.65 12.1001 16.65ZM12.1001 12.8653H19.9001C20.0843 12.8653 20.2386 12.8035 20.3631 12.68C20.4878 12.5564 20.5501 12.4031 20.5501 12.2203C20.5501 12.0376 20.4878 11.8828 20.3631 11.7558C20.2386 11.629 20.0843 11.5655 19.9001 11.5655H12.1001C11.9159 11.5655 11.7616 11.6273 11.6371 11.7508C11.5124 11.8745 11.4501 12.0277 11.4501 12.2105C11.4501 12.3932 11.5124 12.548 11.6371 12.675C11.7616 12.8019 11.9159 12.8653 12.1001 12.8653ZM16.0001 8.8963C16.1734 8.8963 16.3168 8.83963 16.4301 8.7263C16.5434 8.61297 16.6001 8.46963 16.6001 8.2963C16.6001 8.12296 16.5434 7.97963 16.4301 7.8663C16.3168 7.75297 16.1734 7.6963 16.0001 7.6963C15.8268 7.6963 15.6834 7.75297 15.5701 7.8663C15.4568 7.97963 15.4001 8.12296 15.4001 8.2963C15.4001 8.46963 15.4568 8.61297 15.5701 8.7263C15.6834 8.83963 15.8268 8.8963 16.0001 8.8963ZM21.9943 26.3578C20.7995 26.3578 19.7851 25.9389 18.9511 25.101C18.1171 24.2634 17.7001 23.247 17.7001 22.052C17.7001 20.8572 18.119 19.8428 18.9568 19.0088C19.7945 18.1748 20.8108 17.7578 22.0058 17.7578C23.2007 17.7578 24.2151 18.1766 25.0491 19.0143C25.8831 19.8521 26.3001 20.8685 26.3001 22.0633C26.3001 23.2583 25.8812 24.2728 25.0433 25.1068C24.2057 25.9408 23.1893 26.3578 21.9943 26.3578ZM21.4578 22.6V23.8578C21.4578 24.0023 21.5121 24.1288 21.6206 24.2373C21.7289 24.3458 21.8554 24.4001 22.0001 24.4001C22.1448 24.4001 22.2713 24.3458 22.3796 24.2373C22.4881 24.1288 22.5423 24.0023 22.5423 23.8578V22.6H23.8001C23.9448 22.6 24.0713 22.5458 24.1796 22.4373C24.2881 22.3288 24.3423 22.2023 24.3423 22.0578C24.3423 21.9131 24.2881 21.7866 24.1796 21.6781C24.0713 21.5697 23.9448 21.5155 23.8001 21.5155H22.5423V20.2578C22.5423 20.1131 22.4881 19.9866 22.3796 19.878C22.2713 19.7697 22.1448 19.7155 22.0001 19.7155C21.8554 19.7155 21.7289 19.7697 21.6206 19.878C21.5121 19.9866 21.4578 20.1131 21.4578 20.2578V21.5155H20.2001C20.0554 21.5155 19.9289 21.5697 19.8206 21.6781C19.7121 21.7866 19.6578 21.9131 19.6578 22.0578C19.6578 22.2023 19.7121 22.3288 19.8206 22.4373C19.9289 22.5458 20.0554 22.6 20.2001 22.6H21.4578Z" stroke="#1A1A1A" stroke-width="2" mask="url(#path-3-inside-1_696_4664)"/>
</g>
</svg>
