<svg width="40" height="40" viewBox="0 0 40 40" fill="none" xmlns="http://www.w3.org/2000/svg">
<rect width="40" height="40" rx="20" fill="#F7F7F7"/>
<mask id="mask0_239_9683" style="mask-type:alpha" maskUnits="userSpaceOnUse" x="8" y="8" width="24" height="24">
<rect x="8" y="8" width="24" height="24" fill="#D9D9D9"/>
</mask>
<g mask="url(#mask0_239_9683)">
<path d="M18.2502 19.6465L17.8966 20.0001L18.2502 20.3536L22.5232 24.6264C22.5865 24.6897 22.5892 24.7249 22.5896 24.7427H22.5896C22.5896 24.7427 22.5896 24.7427 22.5896 24.7427C22.5899 24.7479 22.5919 24.7799 22.5234 24.8485C22.4504 24.9214 22.416 24.9195 22.4127 24.9193C22.4126 24.9193 22.4125 24.9193 22.4125 24.9193C22.4092 24.9193 22.4019 24.9192 22.3863 24.9117C22.3685 24.9032 22.3369 24.8836 22.2933 24.84L22.2933 24.84L17.6659 20.2129C17.6268 20.169 17.6048 20.1316 17.5921 20.1013L17.1333 20.293L17.5921 20.1013C17.5809 20.0746 17.573 20.0409 17.573 19.9951C17.573 19.9492 17.5809 19.9155 17.5921 19.8888C17.6034 19.8617 17.6226 19.8306 17.6576 19.7956C17.6576 19.7955 17.6577 19.7955 17.6577 19.7955L22.2933 15.1601L22.2933 15.1601C22.3665 15.0869 22.4052 15.0857 22.4177 15.0855L22.4177 15.0854C22.4177 15.0854 22.4177 15.0854 22.4177 15.0854C22.4228 15.0851 22.4548 15.0831 22.5235 15.1516C22.5963 15.2247 22.5944 15.259 22.5943 15.2623C22.5943 15.2624 22.5942 15.2625 22.5942 15.2626C22.5942 15.2626 22.5943 15.2627 22.5943 15.2628C22.5944 15.2661 22.5964 15.3005 22.5232 15.3737L18.2502 19.6465Z" stroke="#1A1A1A"/>
</g>
</svg>
