<svg width="24" height="24" viewBox="0 0 24 24" fill="none" xmlns="http://www.w3.org/2000/svg">
<rect width="24" height="24" rx="12" fill="white"/>
<mask id="mask0_237_9216" style="mask-type:alpha" maskUnits="userSpaceOnUse" x="4" y="4" width="16" height="16">
<rect x="4.80005" y="4.7998" width="14.4" height="14.4" fill="#D9D9D9"/>
</mask>
<g mask="url(#mask0_237_9216)">
<path d="M9.89567 7.04542C9.81164 7.12935 9.75005 7.2447 9.75005 7.38445V14.2152C9.75005 14.3551 9.81177 14.4705 9.89594 14.5545C9.97985 14.6384 10.0951 14.6998 10.2347 14.6998H15.2654C15.405 14.6998 15.5203 14.6384 15.6042 14.5545M9.89567 7.04542C9.9796 6.96139 10.0949 6.8998 10.2347 6.8998H15.2654C15.4053 6.8998 15.5208 6.96153 15.6047 7.0457L15.3923 7.25755L15.6042 7.04515C15.6883 7.1291 15.75 7.24455 15.75 7.38445V14.2152C15.75 14.3551 15.6883 14.4705 15.6042 14.5545M9.89567 7.04542C9.89576 7.04533 9.89585 7.04524 9.89594 7.04515L10.1078 7.25755L9.89539 7.0457C9.89548 7.04561 9.89558 7.04551 9.89567 7.04542ZM15.6042 14.5545L15.3923 14.3421L15.6047 14.5539C15.6045 14.5541 15.6043 14.5543 15.6042 14.5545ZM10.2347 14.9998C10.0093 14.9998 9.82963 14.9251 9.67718 14.7727C9.52473 14.6202 9.45005 14.4405 9.45005 14.2152V7.38445C9.45005 7.15908 9.52473 6.97939 9.67718 6.82694C9.82963 6.67448 10.0093 6.5998 10.2347 6.5998H15.2654C15.4908 6.5998 15.6705 6.67448 15.8229 6.82694C15.9754 6.97939 16.05 7.15908 16.05 7.38445V14.2152C16.05 14.4405 15.9754 14.6202 15.8229 14.7727C15.6705 14.9251 15.4908 14.9998 15.2654 14.9998H10.2347ZM8.1347 17.0998C7.90933 17.0998 7.72963 17.0251 7.57718 16.8727C7.42473 16.7202 7.35005 16.5405 7.35005 16.3152V9.03445C7.35005 8.98211 7.36445 8.95277 7.39148 8.92574C7.41834 8.89888 7.4476 8.88445 7.50005 8.88445C7.55251 8.88445 7.58189 8.89889 7.60889 8.92586L7.8209 8.7136L7.60864 8.92561C7.63562 8.95262 7.65005 8.982 7.65005 9.03445V16.3152C7.65005 16.4549 7.71164 16.5703 7.79567 16.6542C7.8796 16.7382 7.99494 16.7998 8.1347 16.7998H13.6154C13.6678 16.7998 13.6971 16.8142 13.7241 16.8411C13.751 16.8681 13.7654 16.8974 13.7654 16.9498C13.7654 17.0023 13.751 17.0315 13.7241 17.0584C13.6971 17.0854 13.6677 17.0998 13.6154 17.0998H8.1347Z" stroke="#1A1A1A" stroke-width="0.6"/>
</g>
</svg>
