<svg width="33" height="33" viewBox="0 0 33 33" fill="none" xmlns="http://www.w3.org/2000/svg">
<rect x="0.643555" y="0.5" width="32" height="32" rx="16" fill="#F7F7F7"/>
<mask id="mask0_155_2285" style="mask-type:alpha" maskUnits="userSpaceOnUse" x="7" y="6" width="20" height="21">
<rect x="7.04395" y="6.8999" width="19.2" height="19.2" fill="#D9D9D9"/>
</mask>
<g mask="url(#mask0_155_2285)">
<path d="M22.471 11.5277C22.586 11.4129 22.6436 11.2704 22.6436 11.1003C22.6436 10.9303 22.586 10.7877 22.471 10.6727C22.356 10.5576 22.2136 10.5001 22.0436 10.5001H19.4436L22.471 11.5277ZM22.471 11.5277C22.356 11.6426 22.2136 11.7001 22.0436 11.7001L22.471 11.5277ZM14.739 13.4725L15.0218 13.7553C15.058 13.7192 15.097 13.7001 15.1664 13.7001C15.2359 13.7001 15.275 13.7192 15.3111 13.7553C15.3475 13.7917 15.3666 13.8309 15.3666 13.9001V19.9001C15.3666 19.9694 15.3475 20.0086 15.3114 20.0449C15.2753 20.081 15.2363 20.1001 15.167 20.1001C15.0976 20.1001 15.0584 20.081 15.0222 20.045C14.9858 20.0086 14.9668 19.9694 14.9668 19.9001V13.9001C14.9668 13.8306 14.9859 13.7913 15.0221 13.755L14.739 13.4725ZM14.739 13.4725C14.8539 13.3575 14.9964 13.3001 15.1664 13.3001C15.3365 13.3001 15.479 13.3575 15.594 13.4725C15.709 13.5875 15.7666 13.7301 15.7666 13.9001V19.9001C15.7666 20.0701 15.7092 20.2126 15.5944 20.3277C15.4794 20.4426 15.337 20.5001 15.167 20.5001C14.9968 20.5001 14.8542 20.4426 14.7392 20.3277C14.6242 20.2126 14.5668 20.0701 14.5668 19.9001V13.9001C14.5668 13.7301 14.6242 13.5875 14.739 13.4725ZM12.2436 21.8539V22.1001H12.2893C12.3197 22.1772 12.366 22.2498 12.4299 22.3137C12.559 22.4428 12.7236 22.5001 12.8898 22.5001H20.3974C20.5635 22.5001 20.7281 22.4428 20.8572 22.3137C20.9863 22.1846 21.0436 22.02 21.0436 21.8539V11.7001V11.3001H20.6436H12.6436H12.2436V11.7001V21.8539ZM11.8436 11.7001V11.3001H11.4436H11.2436C11.1744 11.3001 11.1354 11.281 11.0992 11.2448L11.099 11.2446C11.0626 11.2082 11.0436 11.1691 11.0436 11.0999C11.0436 11.0305 11.0626 10.9916 11.0987 10.9557L11.099 10.9553C11.1352 10.9192 11.1742 10.9001 11.2436 10.9001H14.2436H14.6436V10.5001C14.6436 10.4099 14.6707 10.3448 14.7334 10.2821C14.7959 10.2197 14.8608 10.1925 14.9512 10.1925H18.336C18.4263 10.1925 18.4912 10.2197 18.5537 10.2821C18.6164 10.3448 18.6436 10.4099 18.6436 10.5001V10.9001H19.0436H22.0436C22.1127 10.9001 22.1517 10.9191 22.1879 10.9554L22.1881 10.9555C22.2245 10.9919 22.2436 11.0311 22.2436 11.1003C22.2436 11.1697 22.2245 11.2086 22.1884 11.2445L22.1881 11.2448C22.1519 11.281 22.1129 11.3001 22.0436 11.3001H21.8436H21.4436V11.7001V21.8539C21.4436 22.1447 21.3447 22.3837 21.1359 22.5924C20.9271 22.8012 20.6882 22.9001 20.3974 22.9001H12.8898C12.5989 22.9001 12.36 22.8012 12.1512 22.5924C11.9424 22.3837 11.8436 22.1447 11.8436 21.8539V11.7001ZM18.3204 19.9001C18.3204 19.9694 18.3013 20.0086 18.2653 20.0448C18.2291 20.081 18.1901 20.1001 18.1208 20.1001C18.0512 20.1001 18.0121 20.0809 17.976 20.0448C17.9396 20.0084 17.9206 19.9693 17.9206 19.9001V13.9001C17.9206 13.8306 17.9397 13.7913 17.9759 13.755L17.6928 13.4725L17.9756 13.7553C18.0118 13.7192 18.0508 13.7001 18.1202 13.7001C18.1897 13.7001 18.229 13.7192 18.2653 13.7555L18.548 13.4725L18.2649 13.7552C18.3013 13.7915 18.3204 13.8307 18.3204 13.9001V19.9001Z" stroke="#1A1A1A" stroke-width="0.8"/>
</g>
</svg>
