<svg width="33" height="33" viewBox="0 0 33 33" fill="none" xmlns="http://www.w3.org/2000/svg">
<rect x="0.643555" y="0.5" width="32" height="32" rx="16" fill="#F7F7F7"/>
<mask id="mask0_155_2286" style="mask-type:alpha" maskUnits="userSpaceOnUse" x="7" y="6" width="20" height="21">
<rect x="7.04395" y="6.8999" width="19.2" height="19.2" fill="#D9D9D9"/>
</mask>
<g mask="url(#mask0_155_2286)">
<path d="M19.2547 12.6116L19.2547 12.6116L19.2504 12.6073L18.7542 12.1187L18.752 12.1165L18.4711 11.8356L18.1883 12.119L11.5605 18.759L11.4436 18.8761V19.0415V20.0307V20.4307H11.8436H12.8328H12.9982L13.1153 20.3138L19.7553 13.686L20.0387 13.4032L19.7577 13.1222L19.7556 13.1201L19.2547 12.6116ZM21.734 11.1295L20.7448 10.1403L20.1791 10.706L21.1683 11.6952L21.734 11.1295ZM19.8939 9.85851L19.8942 9.85819C19.9733 9.77905 20.06 9.72192 20.1558 9.68322L20.1559 9.68318C20.2559 9.64276 20.357 9.62314 20.462 9.62314C20.5739 9.62314 20.6767 9.6434 20.7736 9.68284C20.8647 9.71993 20.9557 9.77957 21.0461 9.86977C21.0464 9.87004 21.0466 9.87031 21.0469 9.87059L22.0065 10.8426L22.0122 10.8484L22.0182 10.854C22.1002 10.9305 22.1533 11.0114 22.1855 11.0979L22.1855 11.0981C22.224 11.2013 22.2436 11.3093 22.2436 11.4245C22.2436 11.5225 22.2255 11.6227 22.1861 11.7272L22.1859 11.7276C22.1529 11.8155 22.0969 11.904 22.0083 11.9925L13.2699 20.7309C13.2283 20.7725 13.1919 20.7947 13.1613 20.8069L13.161 20.807C13.1224 20.8225 13.0812 20.8307 13.0344 20.8307H11.3668C11.2599 20.8307 11.1917 20.7993 11.1335 20.741L11.1333 20.7408C11.075 20.6826 11.0436 20.6144 11.0436 20.5075V18.8323C11.0436 18.7816 11.0519 18.7369 11.0671 18.6958L10.692 18.5569L11.0669 18.6963C11.0767 18.6699 11.0959 18.6364 11.1357 18.5965C11.1357 18.5965 11.1358 18.5964 11.1358 18.5963L19.8939 9.85851ZM9.84355 25.6999C9.6236 25.6999 9.44235 25.6259 9.27947 25.4648C9.11895 25.306 9.04355 25.1253 9.04355 24.8999C9.04355 24.6814 9.11778 24.5006 9.281 24.3374C9.44421 24.1742 9.625 24.0999 9.84355 24.0999H23.4436C23.6635 24.0999 23.8448 24.174 24.0076 24.3351C24.1682 24.4939 24.2436 24.6746 24.2436 24.8999C24.2436 25.1185 24.1693 25.2993 24.0061 25.4625C23.8429 25.6257 23.6621 25.6999 23.4436 25.6999H9.84355Z" stroke="#1A1A1A" stroke-width="0.8"/>
</g>
</svg>
