<svg width="32" height="32" viewBox="0 0 32 32" fill="none" xmlns="http://www.w3.org/2000/svg">
<rect width="32" height="32" rx="16" fill="#F7F7F7"/>
<mask id="mask0_696_1111" style="mask-type:alpha" maskUnits="userSpaceOnUse" x="4" y="4" width="24" height="24">
<rect x="4" y="4" width="24" height="24" fill="#D9D9D9"/>
</mask>
<g mask="url(#mask0_696_1111)">
<path d="M21.75 23.75C20.829 23.75 20.0698 23.4377 19.4411 22.8089C18.8123 22.1802 18.5 21.421 18.5 20.5C18.5 19.579 18.8123 18.8198 19.4411 18.1911C20.0698 17.5623 20.829 17.25 21.75 17.25C22.671 17.25 23.4302 17.5623 24.0589 18.1911C24.6877 18.8198 25 19.579 25 20.5C25 21.421 24.6877 22.1802 24.0589 22.8089C23.4302 23.4377 22.671 23.75 21.75 23.75ZM21.75 22.75C22.3659 22.75 22.9056 22.5265 23.3411 22.0911C23.7765 21.6556 24 21.1159 24 20.5C24 19.8841 23.7765 19.3444 23.3411 18.9089C22.9056 18.4735 22.3659 18.25 21.75 18.25C21.1341 18.25 20.5944 18.4735 20.1589 18.9089C19.7235 19.3444 19.5 19.8841 19.5 20.5C19.5 21.1159 19.7235 21.6556 20.1589 22.0911C20.5944 22.5265 21.1341 22.75 21.75 22.75ZM9 21C8.84258 21 8.73432 20.9522 8.64105 20.8589C8.54778 20.7657 8.5 20.6574 8.5 20.5C8.5 20.3426 8.54778 20.2343 8.64105 20.1411C8.73432 20.0478 8.84258 20 9 20H15C15.1574 20 15.2657 20.0478 15.3589 20.1411C15.4522 20.2343 15.5 20.3426 15.5 20.5C15.5 20.6574 15.4522 20.7657 15.3589 20.8589C15.2657 20.9522 15.1574 21 15 21H9ZM10.25 14.75C9.32903 14.75 8.56979 14.4377 7.94105 13.8089C7.31232 13.1802 7 12.421 7 11.5C7 10.579 7.31232 9.81979 7.94105 9.19105C8.56979 8.56232 9.32903 8.25 10.25 8.25C11.171 8.25 11.9302 8.56232 12.5589 9.19105C13.1877 9.81979 13.5 10.579 13.5 11.5C13.5 12.421 13.1877 13.1802 12.5589 13.8089C11.9302 14.4377 11.171 14.75 10.25 14.75ZM10.25 13.75C10.8659 13.75 11.4056 13.5265 11.8411 13.0911C12.2765 12.6556 12.5 12.1159 12.5 11.5C12.5 10.8841 12.2765 10.3444 11.8411 9.90895C11.4056 9.47348 10.8659 9.25 10.25 9.25C9.6341 9.25 9.09441 9.47348 8.65895 9.90895C8.22348 10.3444 8 10.8841 8 11.5C8 12.1159 8.22348 12.6556 8.65895 13.0911C9.09441 13.5265 9.6341 13.75 10.25 13.75ZM23 12H17C16.8426 12 16.7343 11.9522 16.6411 11.8589C16.5478 11.7657 16.5 11.6574 16.5 11.5C16.5 11.3426 16.5478 11.2343 16.6411 11.1411C16.7343 11.0478 16.8426 11 17 11H23C23.1574 11 23.2657 11.0478 23.3589 11.1411C23.4522 11.2343 23.5 11.3426 23.5 11.5C23.5 11.6574 23.4522 11.7657 23.3589 11.8589C23.2657 11.9522 23.1574 12 23 12Z" stroke="#1A1A1A"/>
</g>
</svg>
