<svg width="32" height="32" viewBox="0 0 32 32" fill="none" xmlns="http://www.w3.org/2000/svg">
<rect width="32" height="32" rx="16" fill="#F7F7F7"/>
<mask id="mask0_113_1753" style="mask-type:alpha" maskUnits="userSpaceOnUse" x="4" y="4" width="24" height="24">
<rect x="4" y="4" width="24" height="24" fill="#D9D9D9"/>
</mask>
<g mask="url(#mask0_113_1753)">
<path d="M15.8623 20.5522L15.8617 20.5519C15.8168 20.5354 15.7682 20.5087 15.7159 20.4667C14.991 19.8246 14.2089 18.9865 13.3699 17.9465C12.57 16.955 12.2 15.9859 12.2 15.0307C12.2 13.7904 12.5898 12.8599 13.3337 12.1794C14.1085 11.4708 14.9903 11.125 16 11.125C17.0097 11.125 17.8915 11.4708 18.6663 12.1794C19.4102 12.8599 19.8 13.7904 19.8 15.0307C19.8 15.9864 19.4312 16.9558 18.6343 17.9473C17.7986 18.9869 17.0153 19.8246 16.2848 20.4662C16.2322 20.5085 16.1834 20.5353 16.1383 20.5519L16.1377 20.5522C16.0857 20.5714 16.0406 20.5788 16 20.5788C15.9594 20.5788 15.9143 20.5714 15.8623 20.5522ZM14.8262 13.9032L14.8261 13.9033C14.5068 14.2228 14.3463 14.6247 14.3463 15.077C14.3463 15.5293 14.5068 15.9312 14.8262 16.2506C15.1456 16.57 15.5476 16.7308 16 16.7308C16.4524 16.7308 16.8544 16.57 17.1738 16.2506C17.4932 15.9312 17.6538 15.5293 17.6538 15.077C17.6538 14.6247 17.4932 14.2228 17.1739 13.9033L17.1738 13.9032C16.8544 13.5838 16.4524 13.423 16 13.423C15.5476 13.423 15.1456 13.5838 14.8262 13.9032ZM9.30775 24C8.93213 24 8.63264 23.8755 8.37855 23.6214C8.12446 23.3674 8 23.0679 8 22.6923V9.30775C8 8.93213 8.12446 8.63264 8.37855 8.37855C8.63264 8.12446 8.93213 8 9.30775 8H22.6923C23.0679 8 23.3674 8.12446 23.6214 8.37855C23.8755 8.63264 24 8.93213 24 9.30775V22.6923C24 23.0679 23.8755 23.3674 23.6214 23.6214C23.3674 23.8755 23.0679 24 22.6923 24H9.30775ZM9.30775 23.5H22.6923C22.8999 23.5 23.1057 23.4284 23.2671 23.2671C23.4284 23.1057 23.5 22.8999 23.5 22.6923V9.30775C23.5 9.10009 23.4284 8.89434 23.2671 8.73295C23.1057 8.57155 22.8999 8.5 22.6923 8.5H9.30775C9.10009 8.5 8.89434 8.57155 8.73295 8.73295C8.57155 8.89434 8.5 9.10009 8.5 9.30775V22.6923C8.5 22.8999 8.57155 23.1057 8.73295 23.2671C8.89434 23.4285 9.10009 23.5 9.30775 23.5Z" stroke="#1A1A1A"/>
</g>
</svg>
