<svg width="32" height="32" viewBox="0 0 32 32" fill="none" xmlns="http://www.w3.org/2000/svg">
<rect width="32" height="32" rx="12" fill="white"/>
<mask id="mask0_974_7837" style="mask-type:alpha" maskUnits="userSpaceOnUse" x="8" y="8" width="16" height="16">
<rect x="8.80005" y="8.7998" width="14.4" height="14.4" fill="#D9D9D9"/>
</mask>
<g mask="url(#mask0_974_7837)">
<path d="M13.1201 17.2089C12.7876 17.2089 12.5029 17.0905 12.2661 16.8537C12.0293 16.6169 11.9109 16.3322 11.9109 15.9997C11.9109 15.6672 12.0293 15.3826 12.2661 15.1458C12.5029 14.909 12.7876 14.7906 13.1201 14.7906C13.4526 14.7906 13.7372 14.909 13.974 15.1458C14.2108 15.3826 14.3292 15.6672 14.3292 15.9997C14.3292 16.3322 14.2108 16.6169 13.974 16.8537C13.7372 17.0905 13.4526 17.2089 13.1201 17.2089ZM13.1201 19.2997C12.2034 19.2997 11.4242 18.979 10.7826 18.3376C10.1409 17.6962 9.82007 16.9174 9.82007 16.0011C9.82007 15.0848 10.1409 14.3055 10.7826 13.6632C11.4242 13.0209 12.2034 12.6997 13.1201 12.6997C13.7432 12.6997 14.3172 12.8632 14.8422 13.1901C15.3672 13.5171 15.7716 13.9536 16.0554 14.4997H21.1425C21.2118 14.4997 21.2746 14.5128 21.3308 14.539C21.387 14.5651 21.4381 14.6013 21.4842 14.6475L22.487 15.6501C22.5332 15.6963 22.5678 15.7508 22.5908 15.8136C22.6139 15.8764 22.6254 15.9397 22.6254 16.0035C22.6254 16.0673 22.6114 16.1268 22.5833 16.1821C22.5553 16.2374 22.5182 16.2882 22.472 16.3344L20.8266 17.8585C20.7801 17.9035 20.7304 17.935 20.6775 17.9529C20.6246 17.9708 20.572 17.9828 20.5197 17.9889C20.4674 17.9951 20.4151 17.9891 20.3628 17.971C20.3105 17.9529 20.2613 17.9277 20.2151 17.8954L19.3554 17.2794L18.6228 17.8863C18.5783 17.9224 18.531 17.9485 18.4808 17.9647C18.4306 17.9808 18.3784 17.9889 18.3243 17.9889C18.2702 17.9889 18.218 17.9824 18.1676 17.9694C18.1172 17.9563 18.0689 17.9336 18.0228 17.9013L16.997 17.1397H16.2354C16.0416 17.812 15.6497 18.3401 15.0597 18.7239C14.4697 19.1078 13.8232 19.2997 13.1201 19.2997ZM13.1201 18.5197C13.767 18.5197 14.3281 18.3134 14.8035 17.9007C15.2789 17.488 15.5459 16.9743 15.6044 16.3597H17.2647L18.3089 17.1225C18.3051 17.1225 18.3041 17.1215 18.306 17.1195C18.3079 17.1176 18.3089 17.1186 18.3089 17.1225L19.3163 16.2951L20.4851 17.119L21.7094 15.9847L21.0194 15.2797H15.5294C15.3509 14.7651 15.046 14.3365 14.6148 13.9938C14.1837 13.6511 13.6855 13.4797 13.1201 13.4797C12.4201 13.4797 11.8251 13.7247 11.3351 14.2147C10.8451 14.7047 10.6001 15.2997 10.6001 15.9997C10.6001 16.6997 10.8451 17.2947 11.3351 17.7847C11.8251 18.2747 12.4201 18.5197 13.1201 18.5197Z" fill="#1C1B1F"/>
</g>
</svg>
