<svg width="32" height="32" viewBox="0 0 32 32" fill="none" xmlns="http://www.w3.org/2000/svg">
<rect width="32" height="32" rx="16" fill="#F7F7F7"/>
<mask id="mask0_696_4599" style="mask-type:alpha" maskUnits="userSpaceOnUse" x="4" y="4" width="24" height="24">
<rect x="4" y="4" width="24" height="24" fill="#D9D9D9"/>
</mask>
<g mask="url(#mask0_696_4599)">
<path d="M15.6619 23.7183L16 24.0287L16.3381 23.7183C18.3884 21.8361 19.9301 20.1077 20.9452 18.5335C21.9549 16.9676 22.5 15.5179 22.5 14.2C22.5 12.2666 21.8788 10.6467 20.6161 9.38395C19.3611 8.12899 17.8118 7.5 16 7.5C14.1882 7.5 12.6389 8.12899 11.3839 9.38395C10.1212 10.6467 9.5 12.2666 9.5 14.2C9.5 15.5179 10.0451 16.9676 11.0548 18.5335C12.0699 20.1077 13.6116 21.8361 15.6619 23.7183ZM16 24.825C15.8274 24.825 15.6509 24.7944 15.4682 24.7291C15.2975 24.6682 15.1468 24.5779 15.0126 24.4562C13.9407 23.4667 12.9955 22.5047 12.1759 21.5703C11.3568 20.6366 10.6779 19.7371 10.1363 18.8721C9.59362 18.0055 9.1862 17.1802 8.90891 16.3958C8.63307 15.6156 8.5 14.8846 8.5 14.2C8.5 11.8177 9.26086 9.96732 10.7515 8.59255C12.2709 7.19122 14.0135 6.5 16 6.5C17.9865 6.5 19.7291 7.19122 21.2485 8.59255C22.7391 9.96732 23.5 11.8177 23.5 14.2C23.5 14.8846 23.3669 15.6156 23.0911 16.3958C22.8138 17.1802 22.4064 18.0055 21.8637 18.8721C21.3221 19.7371 20.6432 20.6366 19.8241 21.5703C19.0045 22.5047 18.0592 23.4667 16.9874 24.4562C16.8532 24.5779 16.7024 24.6682 16.5318 24.7291C16.3491 24.7944 16.1726 24.825 16 24.825ZM17.0589 15.0589C16.7603 15.3576 16.4163 15.5 16 15.5C15.5837 15.5 15.2397 15.3576 14.9411 15.0589C14.6424 14.7603 14.5 14.4163 14.5 14C14.5 13.5837 14.6424 13.2397 14.9411 12.9411C15.2397 12.6424 15.5837 12.5 16 12.5C16.4163 12.5 16.7603 12.6424 17.0589 12.9411C17.3576 13.2397 17.5 13.5837 17.5 14C17.5 14.4163 17.3576 14.7603 17.0589 15.0589Z" stroke="#1A1A1A"/>
</g>
</svg>
