<svg width="20" height="20" viewBox="0 0 20 20" fill="none" xmlns="http://www.w3.org/2000/svg">
<mask id="mask0_237_9318" style="mask-type:alpha" maskUnits="userSpaceOnUse" x="0" y="0" width="20" height="20">
<rect width="20" height="20" fill="#D9D9D9"/>
</mask>
<g mask="url(#mask0_237_9318)">
<path d="M9.9676 16.0709L9.96713 16.0705C9.96277 16.0662 9.96095 16.0637 9.9605 16.063C9.96045 16.0629 9.9604 16.0628 9.96037 16.0628C9.96023 16.0624 9.95999 16.0614 9.9597 16.0599C9.95917 16.0571 9.95835 16.0513 9.95835 16.0417V10.5417V10.0417H9.45835H3.95835C3.94802 10.0417 3.94138 10.0408 3.93776 10.0402C3.93424 10.0395 3.93281 10.0389 3.93275 10.0389L3.93194 10.0384C3.93124 10.038 3.92885 10.0363 3.92488 10.0324L3.92465 10.0321C3.92065 10.0282 3.91903 10.0259 3.91868 10.0253C3.91854 10.0249 3.9183 10.024 3.91803 10.0225C3.91749 10.0196 3.91669 10.0137 3.91669 10.0042C3.91669 9.99459 3.9175 9.98843 3.91812 9.98506C3.91872 9.98178 3.91931 9.98028 3.91947 9.97987C3.91963 9.97949 3.91994 9.97874 3.9209 9.9773C3.9219 9.9758 3.92428 9.97251 3.92911 9.9676L3.92957 9.96712C3.93384 9.96277 3.93639 9.96095 3.93705 9.9605C3.93713 9.96045 3.93719 9.9604 3.93724 9.96037C3.93768 9.96023 3.93859 9.95999 3.9401 9.9597C3.94294 9.95917 3.94879 9.95835 3.95835 9.95835H9.45835H9.95835V9.45835V3.95835C9.95835 3.94802 9.95921 3.94138 9.95988 3.93776C9.96052 3.93424 9.96111 3.93281 9.96113 3.93275L9.9616 3.93194C9.96207 3.93124 9.96374 3.92885 9.96768 3.92488L9.96791 3.92465C9.97186 3.92066 9.97418 3.91904 9.9747 3.91868C9.97517 3.91854 9.97608 3.9183 9.97754 3.91803C9.98043 3.91749 9.9863 3.91669 9.99585 3.91669C10.0055 3.91669 10.0116 3.9175 10.015 3.91812C10.0183 3.91872 10.0198 3.91931 10.0202 3.91947C10.0206 3.91963 10.0213 3.91994 10.0227 3.9209C10.0242 3.9219 10.0275 3.92428 10.0324 3.92911L10.0329 3.92957C10.0373 3.93384 10.0391 3.93639 10.0395 3.93705C10.0399 3.93765 10.0398 3.93751 10.0396 3.93704C10.0394 3.93659 10.0398 3.93736 10.0403 3.9401C10.0409 3.94294 10.0417 3.94879 10.0417 3.95835V9.45835V9.95835H10.5417H16.0417C16.052 9.95835 16.0587 9.95921 16.0623 9.95988C16.0658 9.96052 16.0672 9.96111 16.0673 9.96113L16.0681 9.9616C16.0688 9.96207 16.0712 9.96374 16.0752 9.96768L16.0754 9.96791C16.0794 9.97187 16.081 9.97418 16.0814 9.9747C16.0815 9.97518 16.0817 9.97609 16.082 9.97754C16.0825 9.98043 16.0834 9.9863 16.0834 9.99585C16.0834 10.0055 16.0825 10.0116 16.0819 10.015C16.0817 10.0163 16.0814 10.0174 16.0812 10.0182C16.0809 10.0193 16.0807 10.0199 16.0806 10.0202C16.0804 10.0206 16.0801 10.0213 16.0791 10.0227C16.0781 10.0242 16.0758 10.0275 16.0709 10.0324L16.0705 10.0329C16.0662 10.0373 16.0637 10.0391 16.063 10.0395C16.0624 10.0399 16.0625 10.0398 16.063 10.0396C16.0634 10.0394 16.0627 10.0398 16.0599 10.0403C16.0571 10.0409 16.0513 10.0417 16.0417 10.0417H10.5417H10.0417V10.5417V16.0417C10.0417 16.052 10.0408 16.0587 10.0402 16.0623C10.04 16.0633 10.0398 16.0641 10.0396 16.0648C10.0392 16.0665 10.0389 16.0672 10.0389 16.0673L10.0384 16.0681C10.0382 16.0685 10.0375 16.0695 10.0362 16.071C10.0353 16.0721 10.034 16.0735 10.0324 16.0752L10.0321 16.0754C10.0301 16.0775 10.0285 16.0789 10.0273 16.0798C10.0263 16.0807 10.0256 16.0812 10.0253 16.0814C10.0249 16.0815 10.024 16.0817 10.0225 16.082C10.0196 16.0825 10.0137 16.0834 10.0042 16.0834C9.99459 16.0834 9.98843 16.0825 9.98506 16.0819C9.98368 16.0817 9.98261 16.0814 9.98181 16.0812C9.98071 16.0809 9.98011 16.0807 9.97987 16.0806C9.97949 16.0804 9.97874 16.0801 9.9773 16.0791C9.9758 16.0781 9.97251 16.0758 9.9676 16.0709Z" stroke="#1A1A1A"/>
</g>
</svg>
