<svg width="32" height="32" viewBox="0 0 32 32" fill="none" xmlns="http://www.w3.org/2000/svg">
<rect width="32" height="32" rx="16" fill="white"/>
<mask id="mask0_113_1750" style="mask-type:alpha" maskUnits="userSpaceOnUse" x="4" y="4" width="24" height="24">
<rect x="4" y="4" width="24" height="24" fill="#D9D9D9"/>
</mask>
<g mask="url(#mask0_113_1750)">
<path d="M10.7455 19.0689L10.7455 19.069C11.3082 19.9221 11.9727 20.7789 12.7404 21.6391C13.5105 22.5018 14.3378 23.341 15.2225 24.1566C15.3312 24.2533 15.4492 24.3221 15.5788 24.3669C15.7242 24.417 15.864 24.4403 16.0001 24.4403C16.1373 24.4403 16.2784 24.416 16.4254 24.3636L16.4256 24.3635C16.5607 24.3153 16.6797 24.2442 16.7858 24.1482C17.6715 23.3322 18.4994 22.494 19.2699 21.6337L19.27 21.6336C20.037 20.7773 20.6994 19.9213 21.2586 19.0659C21.8168 18.2118 22.2556 17.3741 22.578 16.5528L22.578 16.5528C22.895 15.7454 23.0481 14.9782 23.0481 14.248C23.0481 12.0592 22.3455 10.3275 20.9632 9.00446C19.5622 7.6637 17.9161 7 16.0001 7C14.0842 7 12.4381 7.66371 11.0371 9.00446C9.65483 10.3275 8.95215 12.0592 8.95215 14.248C8.95215 14.9782 9.10532 15.7473 9.42254 16.5583L10.7455 19.0689ZM10.7455 19.0689C10.1846 18.2187 9.74468 17.3818 9.42255 16.5584L10.7455 19.0689ZM15.7501 14.75V14.25H15.2501H13.0001C12.9135 14.25 12.8647 14.2262 12.8195 14.1809L12.819 14.1805C12.774 14.1356 12.7501 14.087 12.7501 14.0003C12.7501 13.9138 12.774 13.8648 12.8195 13.8193L12.8197 13.8191C12.8649 13.7738 12.9137 13.75 13.0001 13.75H15.2501H15.7501V13.25V11C15.7501 10.9133 15.774 10.8645 15.8192 10.8193L15.8196 10.8189C15.8645 10.7739 15.9131 10.75 15.9999 10.75C16.0864 10.75 16.1353 10.7738 16.1808 10.8193L16.181 10.8195C16.2264 10.8648 16.2501 10.9135 16.2501 11V13.25V13.75H16.7501H19.0001C19.0868 13.75 19.1356 13.7738 19.1808 13.8191L19.1813 13.8195C19.2263 13.8644 19.2501 13.913 19.2501 13.9997C19.2501 14.0862 19.2263 14.1352 19.1808 14.1807L19.1806 14.1809C19.1354 14.2262 19.0866 14.25 19.0001 14.25H16.7501H16.2501V14.75V17C16.2501 17.0867 16.2263 17.1355 16.1811 17.1807L16.1807 17.1811C16.1358 17.2261 16.0872 17.25 16.0004 17.25C15.9139 17.25 15.8649 17.2262 15.8195 17.1807L15.8192 17.1805C15.7739 17.1352 15.7501 17.0865 15.7501 17V14.75ZM15.6667 23.886L16.0001 24.1846L16.3336 23.886C18.3119 22.1151 19.8424 20.4019 20.9115 18.7451C21.9737 17.0991 22.5481 15.5941 22.5481 14.248C22.5481 12.3087 21.9274 10.679 20.6666 9.40088C19.4102 8.12712 17.8433 7.4905 16.0001 7.4905C14.157 7.4905 12.5901 8.12712 11.3337 9.40088C10.0729 10.679 9.45215 12.3087 9.45215 14.248C9.45215 15.5941 10.0266 17.0991 11.0888 18.7451C12.1579 20.4019 13.6884 22.1151 15.6667 23.886Z" stroke="#1A1A1A"/>
</g>
</svg>
