<svg width="25" height="25" viewBox="0 0 25 25" fill="none" xmlns="http://www.w3.org/2000/svg">
<mask id="mask0_808_8470" style="mask-type:alpha" maskUnits="userSpaceOnUse" x="0" y="0" width="25" height="25">
<rect x="0.197266" y="0.5" width="24" height="24" fill="#D9D9D9"/>
</mask>
<g mask="url(#mask0_808_8470)">
<path d="M12.1971 18.5999L14.5221 16.2749C14.7221 16.0749 14.9637 15.9749 15.2471 15.9749C15.5304 15.9749 15.7721 16.0749 15.9721 16.2749C16.1721 16.4749 16.2721 16.7166 16.2721 16.9999C16.2721 17.2832 16.1721 17.5249 15.9721 17.7249L12.8971 20.7999C12.7971 20.8999 12.6887 20.9707 12.5721 21.0124C12.4554 21.0541 12.3304 21.0749 12.1971 21.0749C12.0637 21.0749 11.9387 21.0541 11.8221 21.0124C11.7054 20.9707 11.5971 20.8999 11.4971 20.7999L8.42207 17.7249C8.22207 17.5249 8.12207 17.2832 8.12207 16.9999C8.12207 16.7166 8.22207 16.4749 8.42207 16.2749C8.62207 16.0749 8.86374 15.9749 9.14707 15.9749C9.4304 15.9749 9.67207 16.0749 9.87207 16.2749L12.1971 18.5999ZM12.1971 6.4999L9.87207 8.8249C9.67207 9.0249 9.4304 9.1249 9.14707 9.1249C8.86374 9.1249 8.62207 9.0249 8.42207 8.8249C8.22207 8.6249 8.12207 8.38324 8.12207 8.0999C8.12207 7.81657 8.22207 7.5749 8.42207 7.3749L11.4971 4.2999C11.5971 4.1999 11.7054 4.12907 11.8221 4.0874C11.9387 4.04574 12.0637 4.0249 12.1971 4.0249C12.3304 4.0249 12.4554 4.04574 12.5721 4.0874C12.6887 4.12907 12.7971 4.1999 12.8971 4.2999L15.9721 7.3749C16.1721 7.5749 16.2721 7.81657 16.2721 8.0999C16.2721 8.38324 16.1721 8.6249 15.9721 8.8249C15.7721 9.0249 15.5304 9.1249 15.2471 9.1249C14.9637 9.1249 14.7221 9.0249 14.5221 8.8249L12.1971 6.4999Z" fill="#333333"/>
</g>
</svg>
