<svg width="24" height="24" viewBox="0 0 24 24" fill="none" xmlns="http://www.w3.org/2000/svg">
<mask id="mask0_696_11414" style="mask-type:alpha" maskUnits="userSpaceOnUse" x="0" y="0" width="24" height="24">
<rect width="24" height="24" fill="#D9D9D9"/>
</mask>
<g mask="url(#mask0_696_11414)">
<path d="M4 17.5C3.84258 17.5 3.73432 17.4522 3.64105 17.3589C3.54778 17.2657 3.5 17.1574 3.5 17C3.5 16.8426 3.54778 16.7343 3.64105 16.6411C3.73432 16.5478 3.84258 16.5 4 16.5H8C8.15742 16.5 8.26568 16.5478 8.35895 16.6411C8.45222 16.7343 8.5 16.8426 8.5 17C8.5 17.1574 8.45222 17.2657 8.35895 17.3589C8.26568 17.4522 8.15742 17.5 8 17.5H4ZM4 12.5C3.84258 12.5 3.73432 12.4522 3.64105 12.3589C3.54778 12.2657 3.5 12.1574 3.5 12C3.5 11.8426 3.54778 11.7343 3.64105 11.6411C3.73432 11.5478 3.84258 11.5 4 11.5H14C14.1574 11.5 14.2657 11.5478 14.3589 11.6411C14.4522 11.7343 14.5 11.8426 14.5 12C14.5 12.1574 14.4522 12.2657 14.3589 12.3589C14.2657 12.4522 14.1574 12.5 14 12.5H4ZM4 7.5C3.84258 7.5 3.73432 7.45222 3.64105 7.35895C3.54778 7.26568 3.5 7.15742 3.5 7C3.5 6.84258 3.54778 6.73432 3.64105 6.64105C3.73432 6.54778 3.84258 6.5 4 6.5H20C20.1574 6.5 20.2657 6.54778 20.3589 6.64105C20.4522 6.73432 20.5 6.84258 20.5 7C20.5 7.15742 20.4522 7.26568 20.3589 7.35895C20.2657 7.45222 20.1574 7.5 20 7.5H4Z" stroke="#1A1A1A"/>
</g>
</svg>
