<svg width="24" height="25" viewBox="0 0 24 25" fill="none" xmlns="http://www.w3.org/2000/svg">
<mask id="mask0_603_2905" style="mask-type:alpha" maskUnits="userSpaceOnUse" x="0" y="0" width="24" height="25">
<rect y="0.5" width="24" height="24" fill="#D9D9D9"/>
</mask>
<g mask="url(#mask0_603_2905)">
<path d="M4 18C3.84258 18 3.73432 17.9522 3.64105 17.8589C3.54778 17.7657 3.5 17.6574 3.5 17.5C3.5 17.3426 3.54778 17.2343 3.64105 17.1411C3.73432 17.0478 3.84258 17 4 17H8C8.15742 17 8.26568 17.0478 8.35895 17.1411C8.45222 17.2343 8.5 17.3426 8.5 17.5C8.5 17.6574 8.45222 17.7657 8.35895 17.8589C8.26568 17.9522 8.15742 18 8 18H4ZM4 13C3.84258 13 3.73432 12.9522 3.64105 12.8589C3.54778 12.7657 3.5 12.6574 3.5 12.5C3.5 12.3426 3.54778 12.2343 3.64105 12.1411C3.73432 12.0478 3.84258 12 4 12H14C14.1574 12 14.2657 12.0478 14.3589 12.1411C14.4522 12.2343 14.5 12.3426 14.5 12.5C14.5 12.6574 14.4522 12.7657 14.3589 12.8589C14.2657 12.9522 14.1574 13 14 13H4ZM4 8C3.84258 8 3.73432 7.95222 3.64105 7.85895C3.54778 7.76568 3.5 7.65742 3.5 7.5C3.5 7.34258 3.54778 7.23432 3.64105 7.14105C3.73432 7.04778 3.84258 7 4 7H20C20.1574 7 20.2657 7.04778 20.3589 7.14105C20.4522 7.23432 20.5 7.34258 20.5 7.5C20.5 7.65742 20.4522 7.76568 20.3589 7.85895C20.2657 7.95222 20.1574 8 20 8H4Z" stroke="#1A1A1A"/>
</g>
</svg>
