<svg width="32" height="32" viewBox="0 0 32 32" fill="none" xmlns="http://www.w3.org/2000/svg">
<rect width="32" height="32" rx="12" fill="white"/>
<mask id="mask0_237_9278" style="mask-type:alpha" maskUnits="userSpaceOnUse" x="8" y="8" width="16" height="16">
<rect x="8.80005" y="8.7998" width="14.4" height="14.4" fill="#D9D9D9"/>
</mask>
<g mask="url(#mask0_237_9278)">
<path d="M15.2235 16.8378L14.2197 15.8488C14.1366 15.7658 14.0471 15.7233 13.9513 15.7213C13.8556 15.7194 13.7643 15.7619 13.6773 15.8488C13.5904 15.9358 13.5469 16.0287 13.5469 16.1275C13.5469 16.2263 13.5904 16.3192 13.6773 16.4062L14.8888 17.6178C14.9873 17.7162 15.0989 17.7654 15.2235 17.7654C15.3481 17.7654 15.4596 17.7162 15.5581 17.6178L18.3112 14.8647C18.3942 14.7816 18.4367 14.6896 18.4387 14.5888C18.4406 14.4881 18.3981 14.3943 18.3112 14.3073C18.2242 14.2204 18.1338 14.1769 18.04 14.1769C17.9462 14.1769 17.8558 14.2204 17.7688 14.3073L15.2235 16.8378ZM16.0011 21.46C15.2527 21.46 14.5466 21.3179 13.8829 21.0337C13.2192 20.7495 12.6383 20.3585 12.1402 19.8606C11.6421 19.3627 11.2509 18.782 10.9665 18.1186C10.6822 17.4552 10.54 16.7494 10.54 16.0011C10.54 15.2427 10.6821 14.5341 10.9663 13.8754C11.2505 13.2167 11.6416 12.6383 12.1395 12.1402C12.6374 11.6421 13.218 11.2509 13.8814 10.9665C14.5448 10.6822 15.2507 10.54 15.999 10.54C16.7574 10.54 17.4659 10.6821 18.1246 10.9663C18.7833 11.2505 19.3617 11.6416 19.8598 12.1395C20.3579 12.6374 20.7492 13.2155 21.0336 13.8739C21.3179 14.5323 21.46 15.2407 21.46 15.999C21.46 16.7474 21.3179 17.4534 21.0337 18.1171C20.7495 18.7808 20.3585 19.3617 19.8606 19.8598C19.3627 20.3579 18.7845 20.7492 18.1261 21.0336C17.4677 21.3179 16.7594 21.46 16.0011 21.46ZM16 20.68C17.3 20.68 18.405 20.225 19.315 19.315C20.225 18.405 20.68 17.3 20.68 16C20.68 14.7 20.225 13.595 19.315 12.685C18.405 11.775 17.3 11.32 16 11.32C14.7 11.32 13.595 11.775 12.685 12.685C11.775 13.595 11.32 14.7 11.32 16C11.32 17.3 11.775 18.405 12.685 19.315C13.595 20.225 14.7 20.68 16 20.68Z" fill="#1C1B1F"/>
</g>
</svg>
