<svg width="40" height="40" viewBox="0 0 40 40" fill="none" xmlns="http://www.w3.org/2000/svg">
<rect width="40" height="40" rx="20" fill="white"/>
<mask id="mask0_123_1303" style="mask-type:alpha" maskUnits="userSpaceOnUse" x="8" y="8" width="24" height="24">
<rect x="8" y="8" width="24" height="24" fill="#D9D9D9"/>
</mask>
<g mask="url(#mask0_123_1303)">
<path d="M20.3589 24.3589C20.2657 24.4522 20.1574 24.5 20 24.5C19.8426 24.5 19.7343 24.4522 19.6411 24.3589C19.5478 24.2657 19.5 24.1574 19.5 24C19.5 23.8426 19.5478 23.7343 19.6411 23.6411C19.7343 23.5478 19.8426 23.5 20 23.5C20.1574 23.5 20.2657 23.5478 20.3589 23.6411C20.4522 23.7343 20.5 23.8426 20.5 24C20.5 24.1574 20.4522 24.2657 20.3589 24.3589ZM20.5 20.5H19.5V15.5H20.5V20.5ZM20 29.5C18.6817 29.5 17.4495 29.2502 16.2981 28.7534C15.137 28.2524 14.132 27.5749 13.2786 26.7214C12.4251 25.868 11.7476 24.863 11.2466 23.7019C10.7498 22.5505 10.5 21.3183 10.5 20C10.5 18.6817 10.7498 17.4495 11.2466 16.2981C11.7476 15.137 12.4251 14.132 13.2786 13.2786C14.132 12.4251 15.137 11.7476 16.2981 11.2466C17.4495 10.7498 18.6817 10.5 20 10.5C21.3183 10.5 22.5505 10.7498 23.7019 11.2466C24.863 11.7476 25.868 12.4251 26.7214 13.2786C27.5749 14.132 28.2524 15.137 28.7534 16.2981C29.2502 17.4495 29.5 18.6817 29.5 20C29.5 21.3183 29.2502 22.5505 28.7534 23.7019C28.2524 24.863 27.5749 25.868 26.7214 26.7214C25.868 27.5749 24.863 28.2524 23.7019 28.7534C22.5505 29.2502 21.3183 29.5 20 29.5ZM20 28.5C22.3631 28.5 24.3828 27.6743 26.0286 26.0286C27.6743 24.3828 28.5 22.3631 28.5 20C28.5 17.6369 27.6743 15.6172 26.0286 13.9714C24.3828 12.3257 22.3631 11.5 20 11.5C17.6369 11.5 15.6172 12.3257 13.9714 13.9714C12.3257 15.6172 11.5 17.6369 11.5 20C11.5 22.3631 12.3257 24.3828 13.9714 26.0286C15.6172 27.6743 17.6369 28.5 20 28.5Z" stroke="#1A1A1A"/>
</g>
</svg>
